# xmcd
#
# Track frame offsets:
#	150
#	15918
#	27994
#	53300
#	68831
#	83777
#	101412
#	122689
#	139242
#	158220
#	170760
#	185983
#	205491
#
# Disc length: 2946 seconds
#
# Revision: 3
# Processed by: cddbd v1.5.2PL0 Copyright (c) Steve Scherf et al.
# Submitted via: EasyCDDAExtractor 12.0.1.1
#
DISCID=ad0b800d
DTITLE=Steve Ditzell - 9 String Blues
DYEAR=2004
DGENRE=Blues
TTITLE0=Grinnin' In Your Face
TTITLE1=Guitar Rag
TTITLE2=Evening
TTITLE3=Island Song
TTITLE4=Blue Skies
TTITLE5=Can't Be Satisfied
TTITLE6=Blues Before Sunrise
TTITLE7=Stag-o-Lee
TTITLE8=Just Tryin' To Explain
TTITLE9=Great Dream From Heaven
TTITLE10=Police Dog Blues
TTITLE11=It Hurts Me Too
TTITLE12=Dark Was The Night
EXTD=
EXTT0=
EXTT1=
EXTT2=
EXTT3=
EXTT4=
EXTT5=
EXTT6=
EXTT7=
EXTT8=
EXTT9=
EXTT10=
EXTT11=
EXTT12=
PLAYORDER=
